<?xml version="1.0" standalone="no"?>
<!DOCTYPE svg PUBLIC "-//W3C//DTD SVG 1.1//EN" "http://www.w3.org/Graphics/SVG/1.1/DTD/svg11.dtd">
<svg t="1610093665010" class="icon" viewBox="0 0 1024 1024" version="1.1" xmlns="http://www.w3.org/2000/svg" p-id="3037" xmlns:xlink="http://www.w3.org/1999/xlink" width="200" height="200">
  <defs>
    <style type="text/css"></style>
  </defs>
  <path d="M716.8 998.4a25.6 25.6 0 0 1-25.6-25.6v-256a25.6 25.6 0 0 1 25.6-25.6h256a25.6 25.6 0 1 1 0 51.2h-230.4v230.4a25.6 25.6 0 0 1-25.6 25.6zM307.2 998.4a25.6 25.6 0 0 1-25.6-25.6v-230.4H51.2a25.6 25.6 0 1 1 0-51.2h256a25.6 25.6 0 0 1 25.6 25.6v256a25.6 25.6 0 0 1-25.6 25.6zM972.8 332.8h-256a25.6 25.6 0 0 1-25.6-25.6v-256a25.6 25.6 0 1 1 51.2 0v230.4h230.4a25.6 25.6 0 1 1 0 51.2zM307.2 332.8h-256a25.6 25.6 0 1 1 0-51.2h230.4V51.2a25.6 25.6 0 1 1 51.2 0v256a25.6 25.6 0 0 1-25.6 25.6z" p-id="3038"></path>
  <path d="M307.2 332.8a25.6 25.6 0 0 1-18.112-7.488L56.896 93.12a25.6 25.6 0 0 1 36.224-36.224l232.192 232.192A25.6 25.6 0 0 1 307.2 332.8zM716.8 332.8a25.6 25.6 0 0 1-18.112-43.712L930.88 56.896a25.6 25.6 0 0 1 36.224 36.224l-232.192 232.192a25.472 25.472 0 0 1-18.112 7.488zM948.992 974.592a25.6 25.6 0 0 1-18.112-7.488l-232.192-232.192a25.6 25.6 0 0 1 36.224-36.224l232.192 232.192a25.6 25.6 0 0 1-18.112 43.712zM75.008 974.592a25.6 25.6 0 0 1-18.112-43.712l232.192-232.192a25.6 25.6 0 0 1 36.224 36.224l-232.192 232.192a25.472 25.472 0 0 1-18.112 7.488z" p-id="3039"></path>
</svg>